# xmcd
#
# Track frame offsets:
#	150
#	10812
#	22191
#	31569
#	42283
#	53729
#	65618
#	77265
#	86714
#	98250
#	109844
#	119010
#	131422
#	142899
#	153446
#	162825
#	171229
#	181753
#	193263
#	205898
#	218987
#	227118
#	238360
#	248694
#	260067
#	271363
#	280111
#	293458
#	307603
#	319478
#	332533
#	342903
#
# Disc length: 4785 seconds
#
# Revision: 1
# Processed by: cddbd v1.5.2PL0 Copyright (c) Steve Scherf et al.
# Submitted via: audiograbber 1.83.01
#
DISCID=bf12af20
DTITLE=Various Artist - Rockin' Ryhythm 'n' Blues from Memphis
DYEAR=2012
DGENRE=Blues
TTITLE0=Rocking All The Time - Roy Brown
TTITLE1=You Satisfy - Dave Dixon
TTITLE2=Little Schoogirl - Larry Birdsong
TTITLE3=Hokin' - Willie Mitchell
TTITLE4=I Got To Know - The '5' Royales
TTITLE5=Oh So Wonderful - Roy Brown w/Mamie Dell
TTITLE6=You Don't Love Me - Willie Cobbs
TTITLE7=Big M - Billy Adams
TTITLE8=Flip Folp and Fly - Billy Lee Riley
TTITLE9=Not Gonna Cry - The '5' Royales
TTITLE10=Fell Alright - Jimmy Dotson
TTITLE11=Don't You Know I Love You - Woodrow Adams
TTITLE12=Stroll - Willie Mitchell
TTITLE13=Continental Time - Larry Birdsong
TTITLE14=Rock 'n' Roll Jamboree - Roy Brown
TTITLE15=Don't Go - The Arstoicrats
TTITLE16=Teenage Letter - Billy Lee Riley
TTITLE17=She Did Me Wrong - The '5' Royales
TTITLE18=Thief In The Night - Charles James
TTITLE19=Hey Hey Pretty Baby - Dave Dixon
TTITLE20=One More Time Part 1 - Gene "Bowlegs" Miller
TTITLE21=I'll Let Nothing Separate Me From Your Love - Larry Birdsong
TTITLE22=They Don't Know - The '5' Royales
TTITLE23=One Mint Julep - Wil;lie Mitchell
TTITLE24=Big Legs - Cleanhead Cootsie
TTITLE25=Talk About My Woman - The '5' Royales
TTITLE26=Freddy The Freeloader - Cleanhead Cootsie
TTITLE27=Something On My Mind - Woodrow Adams
TTITLE28=You're So Hard To Please - Willie Cobbs
TTITLE29=One Mint Julep - Charlie Adams
TTITLE30=Had The Blue (Twist) - Billy Adams
TTITLE31=Home Of The Blues - Sammy Lawhorn
EXTD=
EXTT0=
EXTT1=
EXTT2=
EXTT3=
EXTT4=
EXTT5=
EXTT6=
EXTT7=
EXTT8=
EXTT9=
EXTT10=
EXTT11=
EXTT12=
EXTT13=
EXTT14=
EXTT15=
EXTT16=
EXTT17=
EXTT18=
EXTT19=
EXTT20=
EXTT21=
EXTT22=
EXTT23=
EXTT24=
EXTT25=
EXTT26=
EXTT27=
EXTT28=
EXTT29=
EXTT30=
EXTT31=
PLAYORDER=
